<svg xmlns="http://www.w3.org/2000/svg" width="1100" height="380" viewBox="0 0 1100 380">
<rect width="100%" height="100%" fill="white"/>
<style>text{font-family:Malgun Gothic,Noto Sans KR,sans-serif;fill:#202020;paint-order:stroke;stroke:white;stroke-width:4px;stroke-linejoin:round} .box{fill:white;stroke:#444;stroke-width:1.5} .link{fill:none;stroke:#444;stroke-width:1.5}</style>
<defs><marker id="arrow" markerWidth="8" markerHeight="8" refX="7" refY="4" orient="auto"><path d="M0 0 L7 4 L0 8" fill="none" stroke="#444"/></marker></defs>
<rect class="box" x="320" y="20" width="730" height="340"/>
<text x="685" y="53" font-size="23" text-anchor="middle">기법 적용 실험 프로그램</text>
<circle class="box" cx="145" cy="115" r="21"/>
<path class="link" d="M145 136 V216 M102 167 H188 M145 216 L107 270 M145 216 L183 270"/>
<text x="145" y="312" font-size="23" text-anchor="middle">실험 수행자</text>
<ellipse class="box" cx="695" cy="108" rx="265" ry="34"/>
<text x="695" y="115" font-size="22" text-anchor="middle">UC1 입력과 조건 확인</text>
<path class="link" d="M188 167 L430 108"/>
<ellipse class="box" cx="695" cy="208" rx="265" ry="34"/>
<text x="695" y="215" font-size="22" text-anchor="middle">UC2 조건별 검색·생성</text>
<path class="link" d="M188 167 L430 208"/>
<ellipse class="box" cx="695" cy="308" rx="265" ry="34"/>
<text x="695" y="315" font-size="22" text-anchor="middle">UC3 결과 분석·검증</text>
<path class="link" d="M188 167 L430 308"/>
</svg>
